<svg id="LINE" xmlns="http://www.w3.org/2000/svg" width="28.322" height="21.949" viewBox="0 0 28.322 21.949">
  <defs>
    <style>
      .cls-1 {
        fill: #2c2d2d;
      }
    </style>
  </defs>
  <path id="路径_24" data-name="路径 24" class="cls-1" d="M260.023,28.8a2.171,2.171,0,0,0-1.529-2.232.288.288,0,0,0-.427-.026h-2.877a1.149,1.149,0,0,0-1.029,0h-1.508l-.446,0a.3.3,0,0,0-.171.045c-.3.165-.186.455-.186.693q0,5.226.01,10.452c-.886,2.078-1.3,2.348-3.625,2.348-2.4,0-4.8-.008-7.2.008-.3,0-.723-.2-.872.16a1.172,1.172,0,0,0,.272,1.168,1.809,1.809,0,0,0,.85.625.753.753,0,0,0,.628.2q5.751-.016,11.5-.035l4.513,4a17.407,17.407,0,0,0-.2-3.38c-.05-.2-.2-.591.329-.615,1.406-.062,1.939-.933,1.958-2.483.044-3.639.014-7.278.014-10.918" transform="translate(-231.711 -24.248)"/>
  <path id="路径_25" data-name="路径 25" class="cls-1" d="M213.742,29.723c.347,0,.718.105,1.035-.14a1.666,1.666,0,0,0,1.31-1.806q.016-5.311-.008-10.621a1.611,1.611,0,0,0-1.3-1.709c-.217-.2-.487-.142-.74-.142q-7.389,0-14.777,0c-.252,0-.524-.061-.739.144a1.563,1.563,0,0,0-1.2,1.18c-.217.208-.161.48-.161.733q0,5.154,0,10.308c0,.253-.055.525.163.732a1.84,1.84,0,0,0,1.993,1.334c.476-.024.567.137.611.592a22.749,22.749,0,0,1-.211,2.294c0,.2-.137.488.16.588.218.073.328-.163.466-.283q1.832-1.6,3.655-3.2,4.87,0,9.739,0m-8.549-7.284a1.593,1.593,0,0,1,1.332-1.311,1.3,1.3,0,0,1,1.4,1.272,1.317,1.317,0,0,1-1.261,1.313,1.532,1.532,0,0,1-1.466-1.275m4.483,0a1.335,1.335,0,0,1,1.38-1.308c.81.054,1.248.475,1.157,1.3,0,.844-.461,1.318-1.225,1.294a1.375,1.375,0,0,1-1.311-1.291m-7.44,1.279a1.3,1.3,0,1,1-.094-2.589,1.187,1.187,0,0,1,1.286,1.249,1.179,1.179,0,0,1-1.193,1.34" transform="translate(-197.161 -15.297)"/>
</svg>
