<svg id="MAP" xmlns="http://www.w3.org/2000/svg" width="16.911" height="22.333" viewBox="0 0 16.911 22.333">
  <defs>
    <style>
      .cls-1 {
        fill: #2c2d2d;
      }
    </style>
  </defs>
  <path id="MAP-2" data-name="MAP" class="cls-1" d="M16.9,8.191a9.65,9.65,0,0,1-1.56,5.093,58.934,58.934,0,0,1-5.568,8.25c-.8,1.027-1.645,1.083-2.437.069-2.674-3.425-5.266-6.915-6.881-11C-1.369,5.994,2.571.692,6.991.108A8.377,8.377,0,0,1,15.6,3.758a7.183,7.183,0,0,1,1.3,4.433M8.367,4.766A3.7,3.7,0,0,0,4.65,8.433,3.979,3.979,0,0,0,8.5,12.21a3.78,3.78,0,0,0,3.769-3.9c-.045-2.154-1.548-3.549-3.9-3.543" transform="translate(0 -0.001)"/>
</svg>
