<svg id="PHONE" xmlns="http://www.w3.org/2000/svg" width="26.058" height="19.341" viewBox="0 0 26.058 19.341">
  <defs>
    <style>
      .cls-1 {
        fill: #2c2d2d;
      }
    </style>
  </defs>
  <path id="路径_22" data-name="路径 22" class="cls-1" d="M443.844,59.127c-.206-2.44-.4-2.565-2.908-3.214a19.582,19.582,0,0,1-3.647-1.091,2.853,2.853,0,0,1-1.979-2.607,1.877,1.877,0,0,0-1.452-1.893.772.772,0,0,0-.781-.127.992.992,0,0,0,.282.114.987.987,0,0,1-.282-.114h-1.455c-.391-.029-.8-.166-1.15.131-1.115.137-1.59.578-1.822,2.032a3.309,3.309,0,0,1-2.971,3.031c-1.13.2-2.248.467-3.369.721a2.475,2.475,0,0,0-1.881,2.111c-.253,1.149-.052,2.305-.308,3.46a2.2,2.2,0,0,0,2.289,2.623q9.7.011,19.405,0a2.038,2.038,0,0,0,2.243-2.331c-.041-.95-.136-1.9-.216-2.845m-10.189-8.789a1.258,1.258,0,0,1-.2-.011,1.258,1.258,0,0,0,.2.011m-1.8,11.547c-1.078.05-2.842-1.343-2.686-2.8a2.655,2.655,0,0,1,2.768-2.775,2.612,2.612,0,0,1,2.785,2.626,2.869,2.869,0,0,1-2.867,2.951" transform="translate(-419.114 -44.969)"/>
  <path id="路径_23" data-name="路径 23" class="cls-1" d="M437.561,24.092a31.766,31.766,0,0,0-8.256-1.629,5.085,5.085,0,0,0-2.458.009,48.173,48.173,0,0,0-7.043,1.121c-2.823.628-5.253,2.811-4.822,6.423a1.872,1.872,0,0,0,1.833,1.764,23.973,23.973,0,0,0,3.893-.51,2.827,2.827,0,0,0,2.609-2.573c.372-1.826,1.159-2.478,2.982-2.679h3.55a7.291,7.291,0,0,0-.887-.156,7.291,7.291,0,0,1,.887.156c1.6.359,2.457,1.151,2.61,2.417.211,1.738.636,2.1,2.407,2.658,1.3.413,2.68.4,3.97.865a1.65,1.65,0,0,0,1.875-1.008c.688-2.609.266-5.676-3.15-6.857" transform="translate(-414.931 -22.317)"/>
</svg>
